<svg xmlns="http://www.w3.org/2000/svg" width="68" height="69"><g fill="none" fill-rule="evenodd"><path d="M34 68.028c28-1.408 34-15.223 34-34C68 15.25 56.42.814 34 .028 11.58-.76 0 15.25 0 34.028c0 18.777 6 35.407 34 34z" fill="#8450F7"/><g fill-rule="nonzero"><path d="M46.25 19h-24.5A3.754 3.754 0 0018 22.75v24.5A3.754 3.754 0 0021.75 51h24.5A3.754 3.754 0 0050 47.25v-24.5A3.754 3.754 0 0046.25 19zm1.25 28.25c0 .69-.56 1.25-1.25 1.25h-24.5c-.69 0-1.25-.56-1.25-1.25v-24.5c0-.69.56-1.25 1.25-1.25h24.5c.69 0 1.25.56 1.25 1.25v24.5z" fill="#0A103E"/><path d="M34 23.594c5.859 0 10.625 4.766 10.625 10.625 0 .69-.56 1.25-1.25 1.25h-18.75c-.69 0-1.25-.56-1.25-1.25 0-5.859 4.766-10.625 10.625-10.625zm1.25 9.375h6.78c-.604-3.89-3.975-6.875-8.03-6.875s-7.426 2.986-8.03 6.875h6.78v-3.125a1.25 1.25 0 112.5 0v3.125z" fill="#FEFEFE"/></g></g></svg>