<svg xmlns="http://www.w3.org/2000/svg" width="40" height="40"><g fill="#8450F7" fill-rule="nonzero"><path d="M20 40C8.955 40 0 31.045 0 20S8.955 0 20 0s20 8.955 20 20-8.955 20-20 20zm0-3.636c9.037 0 16.364-7.327 16.364-16.364S29.037 3.636 20 3.636 3.636 10.963 3.636 20 10.963 36.364 20 36.364z"/><path d="M13.088 19.161l4.179 4.306 9.645-9.94a1.784 1.784 0 012.554.023 1.92 1.92 0 01.022 2.633L18.555 27.45a1.784 1.784 0 01-2.577 0l-5.466-5.634a1.92 1.92 0 01.022-2.632 1.784 1.784 0 012.554-.023z"/></g></svg>