<svg xmlns="http://www.w3.org/2000/svg" width="68" height="69"><g fill="none" fill-rule="evenodd"><path d="M34 68.028c28-1.408 34-15.223 34-34C68 15.25 56.42.814 34 .028 11.58-.76 0 15.25 0 34.028c0 18.777 6 35.407 34 34z" fill="#8450F7"/><g fill-rule="nonzero"><path d="M34 51c-8.836 0-16-7.164-16-16s7.164-16 16-16 16 7.164 16 16-7.164 16-16 16zm0-2.91c7.23 0 13.09-5.86 13.09-13.09 0-7.23-5.86-13.09-13.09-13.09-7.23 0-13.09 5.86-13.09 13.09 0 7.23 5.86 13.09 13.09 13.09z" fill="#0A103E"/><path d="M35.028 36.028a1.45 1.45 0 01-1.028.427h-6.545a1.455 1.455 0 010-2.91h5.09v-7.272a1.455 1.455 0 012.91 0V35c0 .401-.163.765-.427 1.028z" fill="#FEFEFE"/></g></g></svg>