<svg xmlns="http://www.w3.org/2000/svg" width="41" height="41"><g fill="#8450F7" fill-rule="nonzero"><path d="M20.5 0C9.225 0 0 9.225 0 20.5S9.225 41 20.5 41 41 31.775 41 20.5 31.775 0 20.5 0zm0 38.438c-9.866 0-17.938-8.072-17.938-17.938S10.634 2.562 20.5 2.562 38.438 10.634 38.438 20.5 30.366 38.438 20.5 38.438z"/><path d="M24.333 9h-7.666v7.667H9v7.666h7.667V32h7.666v-7.667H32v-7.666h-7.667V9zm5.111 10.222v2.556h-7.666v7.666h-2.556v-7.666h-7.666v-2.556h7.666v-7.666h2.556v7.666h7.666z"/></g></svg>