<svg xmlns="http://www.w3.org/2000/svg" width="520" height="882"><defs><linearGradient x1="50%" y1="0%" x2="50%" y2="100%" id="a"><stop stop-color="#303660" offset="0%"/><stop stop-color="#242950" offset="100%"/></linearGradient></defs><path d="M36.64 451.71A201.838 201.838 0 0147.1 413.281l32.997-81.725a24.554 24.554 0 012.39-4.569c-17.075-45.175-26.338-102.476-5.25-161.187 6.488-18.147 25.996-27.712 25.996-27.712 15.068 5.38-7.385 93.596 51.608 178.267 0 0 233.24 8.796 321.218 3.587 83.965-4.91 181.419-149.445 181.419-149.445a324.465 324.465 0 0128.002-28.224l3.714-3.202C687.87 84.032 728.166 25.492 744.046 4.783c3.372-4.27 6.787-3.373 7.427 2.092l4.696 37.703a353.853 353.853 0 0126.935-41.076c3.33-4.27 6.744-3.373 7.427 2.093l12.123 97.01 63.732 24.595a41.414 41.414 0 0122.837 26.73l2.561 11.913a45.258 45.258 0 0022.283 27.967l72.567 34.16a14.478 14.478 0 015.208 23.698l-39.1 46.37c-7.13 8.54-125.67 15.243-125.67 15.243-11.057 0-38.419 2.05-39.87 33.348-6.36 120.41-96.259 244.45-96.259 244.45a90.63 90.63 0 00-5.378 38.428s0 68.574 2.817 91.162c4.952 39.539 21.728 100.982 24.289 100.982h4.61c11.023.024 19.954 8.957 19.977 19.983v19.47a19.73 19.73 0 01-5.957 13.875 19.718 19.718 0 01-14.02 5.596c-17.075 0-36.839 2.946-53.487-.256-23.264-4.27-26.21-37.02-33.21-55.508-21.343-56.277-25.868-113.621-38.802-170.41-2.006-10.846-13.745-24.21-37.863-24.21-99.717 0-339.787-64.262-339.787-64.262-10.842-1.836-28.686 8.967-35.089 17.976 0 0-65.31 90.478-87.038 120.71a61.926 61.926 0 00-9.775 36.122c1.409 15.286 5.72 61.145 5.72 61.145 1.024 10.973 3.799 19.854 6.19 19.854h4.268c11.033 0 19.978 8.947 19.978 19.983v19.471a19.73 19.73 0 01-5.957 13.874 19.718 19.718 0 01-14.02 5.597c-14.216 0-29.284 1.793-43.37-.3-17.331-2.561-20.832-7.472-27.79-22.074C8.937 819.857 4.241 766.783.485 724.896a201.721 201.721 0 011.152-39.624C10.431 626.56 36.64 451.71 36.64 451.71z" transform="translate(-476)" fill="url(#a)" fill-rule="nonzero"/></svg>