<svg xmlns="http://www.w3.org/2000/svg" width="68" height="69"><g fill="none" fill-rule="evenodd"><path d="M34 68.028c28-1.408 34-15.223 34-34C68 15.25 56.42.814 34 .028 11.58-.76 0 15.25 0 34.028c0 18.777 6 35.407 34 34z" fill="#8450F7"/><g fill-rule="nonzero"><path d="M45.636 24.017v-3.562a1.455 1.455 0 012.91 0v7.272c0 .804-.652 1.455-1.455 1.455h-7.273a1.455 1.455 0 010-2.91h3.94A13.06 13.06 0 0034 21.91c-7.23 0-13.09 5.861-13.09 13.091 0 7.23 5.86 13.09 13.09 13.09 7.23 0 13.09-5.86 13.09-13.09A1.455 1.455 0 1150 35c0 8.836-7.164 16-16 16s-16-7.164-16-16 7.164-16 16-16c4.488 0 8.662 1.863 11.636 5.017z" fill="#0A103E"/><path d="M41.273 36.455a1.455 1.455 0 110 2.909v.727a1.455 1.455 0 01-2.91 0v-.727h-3.636a1.455 1.455 0 01-1.362-1.965l2.182-5.819a1.455 1.455 0 012.724 1.021l-1.445 3.854h1.538V35a1.455 1.455 0 112.909 0v1.455zM31.686 36.62l-1.759 2.016h1.164a1.455 1.455 0 010 2.91h-4.364c-1.248 0-1.917-1.47-1.096-2.411l3.839-4.399a.727.727 0 10-1.288-.463 1.455 1.455 0 01-2.91 0 3.636 3.636 0 116.414 2.347z" fill="#FEFEFE"/></g></g></svg>