<svg version="1.0" xmlns="http://www.w3.org/2000/svg" width="654.667" height="654.667" viewBox="0 0 491 491"><path d="M216.8 10.5c-32.5 3.9-70.5 17.3-96.8 34.1-37.5 23.9-67.9 57.8-87.1 96.9-32 65.4-31.9 142.6 0 208.1 12 24.6 27.6 45.9 47.9 65.6 35.9 34.9 78.6 56.1 129.7 64.5 15.6 2.5 54.4 2.5 70 0 42.2-7 80-23.3 111.9-48.5 10.2-8 28.6-26.3 37-36.7 17.6-21.8 31.9-47.9 40.5-74 16.3-49.5 16.3-100.5 0-150-5.2-15.8-15.5-38-23.5-50.5-13.2-20.7-33.5-43.6-51.9-58.5-34.3-27.8-77.3-45.9-121.2-51-15.3-1.8-41.7-1.8-56.5 0zm65.7 6.4C332.1 25.6 374.4 47.4 409 82c29.2 29 50.4 66.1 60.5 105.3 5.6 22 7 33.3 7 58.2 0 16.3-.5 25-1.8 33.5C458.6 381 381 458.6 279 474.7c-16 2.5-51 2.5-66.8 0-24.6-3.9-46.2-10.7-68.8-21.7-68.1-33.4-115.1-97.7-127.1-174.2-2.5-15.8-2.5-50.8 0-66.8C26.7 145.8 62.7 89.5 118 52.5c31.5-21.1 64.2-32.5 108-37.9 1.9-.2 12.7-.3 24-.1 15.2.2 23.6.9 32.5 2.4z"/><path d="M239 32.5c0 .8.7 1.5 1.5 1.5 1.2 0 1.5 1.6 1.5 8 0 7 .2 8 1.8 8 1 0 3-2.1 4.9-5.3l3.2-5.2.1 5.7c0 5.8 0 5.8 3 5.8 2.3 0 3-.4 3-2 0-1.1-.4-2-1-2s-1-3.2-1-7.5c0-6.8-.2-7.5-2-7.5-1.2 0-2.9 1.7-4.7 4.7l-2.8 4.8-.3-5.3-.3-5.2h-3.5c-2.4 0-3.4.5-3.4 1.5zM220.8 32.7c-2.5.3-3.8.9-3.8 1.9 0 .8.6 1.4 1.4 1.4.9 0 1.5 1.8 2 5.2.9 7.9.7 14.8-.4 14.8-.5 0-1 .7-1 1.5 0 1.1 1.2 1.5 4.5 1.5s4.5-.4 4.5-1.5c0-.8-.7-1.5-1.5-1.5-.9 0-1.5-.9-1.5-2.5 0-2.2.3-2.5 2.4-1.9 1.9.4 3.2-.1 5.2-2.1 2.4-2.4 2.6-3.2 2.2-8.5-.6-9-1.7-9.6-14-8.3zM262.6 35.1c-.7 3.4.5 5.6 2.3 4.5.6-.4 1.1-1.4 1.1-2.2 0-.8.5-1.4 1.1-1.4.8 0 1 1.5.5 4.6-.3 2.6-.6 5.3-.6 6 0 .8-.7 1.4-1.5 1.4-2 0-1.9 2.6.1 3.4 3 1.1 7.4.7 7.4-.8 0-.8-.5-1.6-1.1-1.8-.8-.3-.9-2.3-.4-6.6.4-3.4 1.1-5.9 1.6-5.6.5.3.9 1.4.9 2.5 0 3.5 3.5 1.9 3.8-1.8.4-3.6-.1-3.8-8.9-4.8l-5.6-.7-.7 3.3zM281.5 35c-.4.6-.2 1.7.4 2.4.6.7 1.6 4.8 2.1 9 .5 4.3 1.2 8.1 1.5 8.6.3.4-.2 1.4-1.1 2.1-1.2 1-2 1-3.5.1-1.1-.7-2.4-1-2.9-.7-3.6 2.2 3.3 6.6 7.3 4.8 1.2-.6 4.6-5.3 7.6-10.7 2.9-5.3 5.7-9.6 6.2-9.6s.9-.6.9-1.4c0-1.4-2.9-2.6-6.2-2.6-1.8 0-2.5 2.6-.9 3.2.5.1-.4 2.8-1.9 5.8-2.8 5.2-2.9 5.3-3 2.4 0-1.7-.3-4.6-.6-6.3-.5-2.4-.3-3.1 1-3.1 2.4 0 1.9-2.8-.6-3.5-1.3-.4-3-.9-4-1.1-.9-.3-1.9 0-2.3.6zM193.1 38.9c-.6 1-1.3 3.7-1.7 6-.4 2.2-1 4.1-1.4 4.1-.4 0-1.3-2-1.9-4.5-1.1-4.4-2.2-5.2-5.5-3.9-2 .8-2.1 3.4-.2 3.4 1.2 0 4.6 8.5 4.6 11.7 0 1.9 1.8 3.3 3.3 2.7.9-.3 2.1-2.8 2.8-6 .7-3 1.5-5.4 1.9-5.4.4 0 1.3 2.1 1.9 4.6 1 4.1 1.4 4.5 3.4 4 1.2-.3 2.5-.6 3-.6.4 0 .7-.9.7-2.1 0-1.4-.5-1.9-1.4-1.6-1.1.4-1.9-.9-3.1-5.1-.9-3.1-1.8-6.5-2.1-7.5-.7-2.3-3.1-2.2-4.3.2zM305 42.5c0 .8.9 1.5 1.9 1.5 3.2 0 5.1 1.1 5.1 2.9 0 1.3-.8 1.6-4 1.3-5.2-.5-8 1.8-8 6.4 0 3.8 2.7 5.9 6.6 5.1 1.4-.2 2.5.1 2.8.9.6 1.7 4.2 1.8 5.2.3.3-.6.1-1.5-.7-1.9-1.1-.7-1-1.8.4-6.3 2.1-6.6 2.1-8.1.1-10.1-2.1-2.1-9.4-2.2-9.4-.1zM171.3 44.2c-3.6 1.2-4.4 3.7-1.4 4.5 1.1.3 2.4 1.7 2.9 3.2.6 1.4 1.3 3.5 1.7 4.6.6 1.6.4 1.6-1-.4-1.5-2-2.4-2.3-6.1-1.8-3 .3-4.4.1-4.4-.7 0-.7-.6-2.1-1.4-3.1-1.2-1.7-1.7-1.8-4.1-.7-2.7 1.2-3 3.7-.4 3.7 1.7 0 6.4 10.8 4.9 11.3-1.7.6-1.1 3.2.8 3.2 3 0 10.6-4.4 11.8-6.7.9-1.9 1.1-1.9 2-.6.7 1.2 1.8 1.4 3.7.9 3-.7 3.7-3.6 1-3.6-2 0-6.8-10.6-5.2-11.6 1.4-.8 1.1-3.4-.3-3.3-.7.1-2.8.6-4.5 1.1zM324 48.5c0 .8.5 1.5 1.1 1.5 1.3 0-4.1 10-5.5 10.1-.6.1-1.8.2-2.6.3-.8 0-1.6.9-1.8 1.8-.3 1.4.4 1.8 3.1 1.8 3.8 0 5.3-1.3 8.9-7.7 1.7-2.9 2.8-3.9 3.7-3.4 1.8 1.2-2.4 10.7-5 11.4-3 .8-2.2 2.7 1.7 4.3 2.6 1.1 4 1.2 4.7.5.8-.8.8-1.4 0-2.2-.8-.8-.3-2.8 1.8-7.5 1.6-3.5 2.9-6.7 2.9-7.1 0-.9-9.8-5.3-11.7-5.3-.7 0-1.3.7-1.3 1.5zM145.2 56c-3.2 1.9-3.6 4-.8 4 .8 0 1.9.6 2.5 1.4 1 1.2.7 1.8-1.5 3.3-2 1.3-2.9 1.4-3.2.5-.2-.6-1.1-2.1-2.1-3.3-1.5-1.9-2-2-3.9-.8-2.6 1.7-2.9 3.9-.4 3.9 2.3 0 7.3 9.1 6.5 11.9-.7 2.6.9 2.7 4.8.4 3.1-1.8 3.6-5 .7-4.5-2.7.4-3.2-3-.6-4.9 2.2-1.7 2.3-1.7 4.2 1.4 1.1 1.8 2.1 3.3 2.2 3.5.1.1 1.3-.3 2.8-.9 2.8-1.3 3.2-4.6.5-4.1-2.2.3-7-8.7-6.2-11.6.7-2.8-1.1-2.9-5.5-.2zM342.7 56.5c-.4.8-.2 1.7.3 2 1.4.9-4.2 10.5-6.1 10.5-.9 0-1.9.6-2.2 1.4-.6 1.6 7.8 6.6 11.1 6.6 5.3 0 7.1-7.4 2.6-10.9-2.5-2-2.6-2.2-1-4.6 2.2-3.3 2-4-.9-5.3-3.2-1.5-3.2-1.5-3.8.3zM359.6 65.9c-.4.5-.4 1.5-.1 2.3.8 2-5.7 10.4-7.7 10-2.8-.6-2.1 2.2 1.2 4.6 3.8 2.9 5.3 2.8 4.8-.2-.3-1.3 0-3 .6-3.9 1-1.3 1.4-1.3 3.5.5l2.4 1.9-2.3 3.1-2.3 3.1 2.3 1.9c1.2 1 2.6 1.8 3 1.8 1.2 0 2-2.9 1-3.5-1.4-.9 5.9-10.5 7.5-9.9.7.3 1.6 0 2-.6.8-1.3-4.1-5.9-6.2-6-1.7 0-2.8 2.1-1.5 2.9.7.4.6 1.1-.2 2.3-1.1 1.5-1.4 1.5-3.5-.1-2.2-1.7-2.2-1.7-.4-5 1.8-3.1 1.7-3.2-.1-4.6-2.3-1.7-3.3-1.9-4-.6zM122.2 70.1c-.9 1.1-3 2.7-4.5 3.5-3 1.6-3.2 4-.3 3.8 2.4-.3 12.7 14.7 11.9 17.4-.7 3 1.2 2.8 5.4-.4 3.4-2.6 3.6-4.4.4-4.4-.9 0-2.2-.5-2.9-1.2-.9-.9-.5-1.6 1.8-3 4.7-2.8 4-8.8-1.8-15.1-3.1-3.3-7.5-3.6-10-.6zM378.5 80c-.3.5-.3 1.5 0 2 1 1.6-6.6 9.5-8.7 9.2-5-.9 2.4 8 7.8 9.4 5.2 1.3 8.7-6.4 4.8-10.7-1.5-1.6-1.4-2 .2-4.8 1.8-3 1.8-3.1-.1-4.6-2.4-1.7-3.2-1.8-4-.5zM103.5 84.6c-1.4 1.5-2.5 3.3-2.5 4 0 2.3 2.5 2.1 4.6-.4 1.4-1.7 2.6-2.3 3.8-1.9 1.6.6 1.6.9-.3 3.3-4.1 5.2-1.9 11.4 4 11.4 2.2 0 3.4-.7 4.6-2.8.9-1.6 2.6-3.3 3.7-3.8 2.8-1.2 2.7-3.9-.1-3.9-1.3 0-3.6-1.7-5.8-4.3-4.5-5.1-8.3-5.6-12-1.6zM214.5 93.9c-3.3 1-12.1 4.8-19.5 8.5-14.7 7.2-33.9 13.9-52.1 18l-11.5 2.7-4.7 5.5c-5 5.9-5.7 8.9-3.3 13.2 2 3.7 18.4 19.8 22.2 21.8 2.7 1.5 3.5 2.7 4.3 6.3 1.1 5.4 1 5.6-7.5 11.7-5.7 4.1-6.8 5.5-11.8 15.2-3 5.9-6.6 12.2-8 14.1-6.2 8.4-10.6 28.2-11.3 51.8-.8 26.4 2.1 45.3 9.3 59.6 11.2 22.1 49.1 48.5 95.6 66.6 17 6.6 41.9 15.1 44.1 15.1 1.9 0 2-.4 1.3-7.3-.4-3.9-.9-10.8-1.3-15.2l-.6-8 2.5 2.2c1.5 1.5 3.7 2.3 5.8 2.3 2.9 0 4.4-1 9.1-5.9 7-7.3 12.4-17.8 17.9-34.4 4.1-12.4 4.4-15.7 1.8-15.7-.8 0-5.2 5.5-9.8 12.2-14.5 20.9-24.7 29.9-31.8 28.3-3.3-.7-8.2-5.5-10.7-10.3-.9-1.9-2.3-7.1-3.2-11.5-1.8-9.5-2.8-11.8-9.3-20.7-5.5-7.5-7.5-11.2-8.5-15.8l-.7-3.2h4.6c6.1 0 6-1.2-.9-15-5.5-10.9-5.5-11.1-6.4-23.2-.7-10.3-1.3-13.6-4.1-20.3-3.4-8.5-3.9-12.8-2.6-21.3.7-4.4.6-5.2-.7-5.2-2.4 0-6.4 4-8.7 8.5-1.8 3.5-1.9 3.7-1.4 1 2.8-13.4 13.1-35.6 20.2-43.5 2.7-3 5.3-5.2 5.7-4.8.5.4-1.5 4.5-4.3 9-2.7 4.6-5.7 9.9-6.5 11.8-.8 1.9-3.1 5.2-5.1 7.2-2 2-3.6 4.5-3.6 5.4 0 1.4.7 1.6 4.4 1.1 4.1-.6 4.7-.4 7 2.3 1.6 1.9 3.1 5.8 4.2 10.7.9 4.3 3.2 10.8 5 14.4 2.7 5.4 3.7 9.2 5 19 .9 6.8 2.5 14.6 3.5 17.4 2.7 7.1 11.5 20.5 13.5 20.5 2.6 0 1.2-7.3-2.7-13.4-6.6-10.2-8.1-14.3-10.1-26.8-1-6.8-2.8-15.5-3.9-19.3-1-3.9-1.9-8-1.9-9.1 0-4.8 19.5-19.4 34.1-25.5 5.7-2.4 10-5 14-8.8l5.9-5.3 7.7 7.2c7.4 6.9 13.8 10.9 17.4 11 3.5 0 6.7-3.9 8-9.7 1.2-5 1.1-6.4-1-14.3-2.7-10.5-2.5-13.6 1.2-16.4 2.3-1.7 4.3-2.1 10.7-2.1 7.5 0 8.1-.2 11.2-3.2 1.8-1.7 4.9-4 6.8-5 4.5-2.5 4.5-4.6-.2-5.7-2.9-.7-3.8-1.5-4.3-3.7-.7-3.3-5.6-8.9-7.7-8.9-.8 0-2.3.9-3.2 1.9-2.2 2.4-5 1.7-7.6-1.9-2.5-3.5-2.5-5.2 0-7.5 2.7-2.4 2.5-4.3-.9-9.6-5.8-9.2-19.1-15.3-41.1-18.9-11.7-1.9-13.8-2.5-16.7-5-4.4-3.9-7.2-4.5-13.3-2.7-4.5 1.3-5.7 1.4-9.2.1-5.8-2-22.7-1.7-30.3.5zm-10 58.6c.8 14.4-.2 18.7-5.4 22.2-4 2.7-13.5 3.1-21.6.9l-5-1.4 5.1-.1c10-.2 16.7-4.1 20.5-11.8 2-4.2 2.3-6.7 2.8-20.3l.4-15.5 1.3 7c.7 3.8 1.6 12.4 1.9 19zM158 177.9c1 2.2 2.2 5.8 2.6 8.1.4 2.3 1.3 4.8 2.1 5.5 1.2 1.2.7 3.2-3.8 14-2.8 6.9-5.3 12.4-5.6 12.2-.2-.3.3-4.5 1.1-9.3 2.6-15.6 3.8-26.4 3.2-27.9-.3-.9-1.2-1.2-2.2-.8-1.4.5-1.6.3-1.1-1.1.4-1 .7-2.4.7-3.2 0-2.3.9-1.6 3 2.5zM92 95.4c-2.6 2.9-2.1 6.1.9 5.1 2.7-.8 3.6 1.3 1.5 3.6-1.7 1.9-1.8 1.9-3.9-.1-2.7-2.5-3.7-2.5-5.9-.1-2.1 2.3-1.3 4.4 1.3 3.6 1.8-.6 10 6.9 8.8 8.1-.4.4-.2 1.3.5 2.1.9 1.1 1.6.9 4-1.3 3.3-3.2 3.8-5.9.8-5.1-2.8.7-4.4-1.6-3-4.2 1.4-2.7 1.6-2.6 5.3.5 3 2.5 3 2.5 5 .5 2.3-2.2 1.7-6.2-.6-4.2-1.9 1.5-10.1-6.8-9.1-9.2 1-2.7-2.9-2.1-5.6.7zM398.7 98.6c-.3.3-.3 1.2-.1 1.9.3.7-2 3.5-5.2 6.3-6.8 6.1-6.5 7.7 1.1 6.8 3-.3 6.2-.9 7.2-1.2 1-.4-.2 1.2-2.7 3.4-4.5 4-4.5 4-2.6 6.1 2.2 2.4 4.1 2.3 4.1-.2 0-.9 2.5-3.8 5.4-6.5 6.6-5.9 6.3-7.8-1-6.8-2.7.4-5.7.9-6.7 1.2-.9.3.1-1.1 2.2-3 3.6-3.3 3.8-3.8 2.8-6.1-1.1-2.4-3.1-3.2-4.5-1.9zM76.4 113.5c-.4.9.5 4.2 1.9 7.5l2.6 5.9-4.5-3.2-4.6-3.2-1.9 2.4c-2.2 2.7-1.7 4.1 1.4 3.9 1.2-.1 4.6 1.5 7.5 3.6 4.9 3.5 8.2 4.2 8.2 1.6 0-.6-1.1-3.3-2.5-6s-2.5-5.2-2.5-5.5c0-.4 2 .8 4.5 2.6 4.4 3.2 4.6 3.2 6 1.3.8-1 1.5-2.4 1.5-3.1 0-1.6-1.7-2.6-2.5-1.3-.4.6-3.2-.7-7-3.5-7.1-5-7.3-5.1-8.1-3zM421.7 126.7c-.4.3-.7 1.3-.7 2.2 0 2.3-8.1 7.2-10.8 6.4-3.3-.8-2.8 1.8 1.3 7.9 3.3 5 3.4 5.2 1.5 6.5-2.4 1.7-2.6 3.1-.5 3.9 1.7.7 7.8-3.4 7-4.6-.3-.5 2.3-2.9 5.9-5.2l6.4-4.3-1.5-2.8c-1.5-2.9-3.9-3.2-3.7-.4.1 1-2 3-4.8 4.9-4.9 3-5.1 3.1-6.4 1.3-.8-1-1.4-2.1-1.4-2.4 0-.3 2.3-2 5.1-3.6 6.8-4 7.5-5 5.9-8-1.4-2.6-2.2-3-3.3-1.8zM63.3 132.7c-.7.5-1.9 2.5-2.7 4.5-.9 2-2 3.9-2.6 4.3-.5.3-1 1.5-1 2.7 0 1.7.4 1.9 2.5 1.4 3.2-.8 18 7.5 18 10.1 0 3.2 2.4 2.4 4.4-1.6 2.7-5.2 2.6-5.4-.6-4.8-4.2.8-5.7-.2-3.8-2.3 2.7-3 1.6-7.9-2.6-11.2-3.7-3-9.5-4.5-11.6-3.1zM428 150.1c-6.8 2.7-9.3 10.1-5 14.7 3.7 4 6.4 1.8 3.1-2.4-1.6-2-1.8-3.1-1.1-4.5 1.8-3.3 2.9-3 4.9 1.6 2.2 5 3.6 5.5 7.5 2.4 1.9-1.5 2.6-3 2.6-5.4 0-5.8-5.8-8.9-12-6.4zM52.6 153.1c-4.9 3.9-2.8 11.4 4 13.9 7 2.7 12.2 0 13.1-6.9.5-3.8.4-4.3-1.3-3.9-1.1.2-2 1.3-2.2 2.8-.5 3.4-2 5-4.7 5h-2.3l2.1-5c2.3-5.5 2-6.4-3-7.3-2.3-.5-3.8-.1-5.7 1.4z"/><path d="M356 154.2c-2.9 1.5-5.2 3.6-6.5 6-1.4 2.7-2.7 3.8-4.2 3.8-1.9 0-2.3.6-2.3 3 0 5.2 2.7 8.8 10 13.5 3.8 2.4 7.3 5.2 7.9 6.2 2.2 4.3-4.5 12.4-20.4 24.2-21.5 16.2-33.4 19.3-47.9 12.6-5.5-2.6-6.4-2.7-17.5-2.3l-11.7.4 6.3-6.5c5-5 6.3-7 6.1-9-.5-4.2-3-3.5-10.7 2.9-4 3.3-9.9 7.4-13.3 9.1-7 3.6-10.8 7-10.8 9.9 0 1.5.6 2 2.5 2 2.2 0 2.4.2 1.5 2.6-2.2 5.6-1 13.3 3.6 25.2 2.7 6.9 2.7 10.7 0 5.4-1.8-3.5-4-4.2-5-1.5-1.8 4.6 11.5 21.8 20.4 26.3 4.1 2 11 3.6 19.5 4.5 3.3.4 10.3 1.5 15.7 2.6 10.9 2.1 21.2 2.4 24.5.6 1.2-.7 3.5-3 5.1-5.3 2.6-3.5 4.5-4.7 13.5-8.3 5.8-2.3 11.3-4.8 12.3-5.5 2.1-1.6 1.2-4.6-1.4-4.6-1 0-3.4-1.4-5.2-3-1.8-1.7-4.2-3-5.3-3-1.2 0-2.4-1.3-3.4-4-1.7-4.2-3.3-4.4-3.3-.4 0 1.6-.6 2.4-1.7 2.4-1.9-.1-13-6.7-12.5-7.5 1.3-2.7-9.8-8.2-19.4-9.7-11.2-1.6-11.4-1.7-12.4-4.3-.7-1.9-1.7-2.5-4-2.5-3.4 0-4.1 2.2-1.2 3.9 1.6 1 1.6 1.2-.2 2.6-1.7 1.3-2.2 1.2-4.7-.2l-2.7-1.6 3.1-4.8c3.1-4.8 3.3-4.9 8.3-4.9 2.8 0 7.3-.2 10-.5s4.3-.3 3.7.1c-3.8 1.7 0 3.9 10.4 6 8.4 1.7 17.3 6.6 17.3 9.6 0 .9 1.4 2.7 3.1 4 1.7 1.3 4.5 3.8 6.2 5.7 1.8 1.8 7.6 6.2 12.9 9.7 5.3 3.5 9.9 6.8 10.2 7.3.8 1.2-10.1 17.4-12.8 19.2-1.5.9-6 1.4-15.6 1.5-11.7 0-14.5.4-21.5 2.7-12.2 4.1-23.1 3.3-28.6-1.8-3.1-3-5.9-2.8-5.9.4 0 4.4 8 7.6 22 8.7 5.4.5 8.2.1 16.5-2.6 9.4-2.9 10.6-3 20-2.4 14.8 1 18.7-1 26.7-13.5 2.3-3.6 4.3-6.8 4.5-7 .2-.3 1.6.5 3.1 1.6 9.4 7 17.5 8.2 22.3 3.4 1.7-1.7 2.9-4 2.9-5.5 0-3.4-1-3.3-4.5.4-1.6 1.6-3.5 3-4.3 3-2.4 0-7.2-4-7.2-6 0-1.1-2-4.2-4.4-6.9-2.5-2.8-6.3-8.2-8.6-12-2.2-3.9-6.6-9.8-9.6-13.1l-5.6-6 8.5 5.3c4.7 2.8 11.3 6.7 14.5 8.5 3.3 1.9 8.2 5.4 11 7.8 5.4 4.8 7.2 5.4 7.2 2.6 0-3.3-5.4-8.1-18.4-16.2-7.1-4.4-14-9-15.4-10l-2.5-2h2.5c4.2 0 12.6-4.9 15.5-9.1 1.6-2.1 3.3-3.7 3.9-3.5 1.2.5 5.4-8 7.4-14.9.6-2.2 1.5-10.3 2-18 .6-11.5.5-14.3-.7-16.1-.9-1.5-1.1-2.4-.4-2.9.6-.3 1.1-3 1.1-5.8 0-7.2-3.5-11.6-10.5-12.9-11-2.2-16.7-2-21.5.4zm15.5 57.7c-2.6 12.4-4.8 14.8-17.7 18.5-4.4 1.2-6.2 1.4-8.1.5-2.4-1.1-2.4-1.1 2.7-5.8 2.8-2.6 7.8-6.8 11.1-9.3 3.3-2.5 7.5-6.2 9.4-8.2 1.9-2 3.6-3.4 3.8-3.2.2.2-.3 3.5-1.2 7.5zM340.3 233c.3 1.3 0 2-.9 2-3.3 0-.7 3 8.9 10.1 9.7 7.1 10.4 8 14.9 16.4 2.6 4.8 5.8 9.9 7 11.3 2.1 2.3 1.5 2.1-4.7-1.2-12.1-6.6-16.9-10.3-25.9-20-9.3-10.2-16.5-14.8-25.6-16.4-3.8-.7-2.7-.9 7.5-1.4 6.6-.3 13.1-1.1 14.5-1.6 3.5-1.5 3.7-1.4 4.3.8zm-79.9 7.2c1.6 6.2.2 14.2-1.9 10.8-1.2-1.9-3.5-1-3.5 1.4 0 3 5.7 8.1 10.1 9.1 2.2.5 3.5 1.5 4.2 3.6 1.3 3.4 3.5 3.6 13.5 1.5 3.4-.7 8.6-1.1 11.6-.8 3.8.3 7.1-.2 11.5-1.7 9.9-3.4 15-2.8 21.4 2.5 1.6 1.3 3.8 2.4 5 2.4 5 0-9.4 5.3-19.3 7.1-21.9 4-24 4.2-30.4 2.9-8.4-1.7-13-4.3-21-11.9-10.8-10.4-14.5-20.2-9.3-24.8 2.2-2.1 5.7-4.2 6.8-4.3.4 0 .9 1 1.3 2.2zm13.8 10.2c3.1 1.9 9.8 5 14.9 6.9l9.2 3.5-7.9.6c-17.6 1.5-18.7 1.2-22-5.7-2.6-5.8-3-8.7-1.1-8.7.6 0 3.8 1.6 6.9 3.4zM441.9 165.5c-.1.3-.2 1.1-.3 1.7 0 .7-2.5 2.1-5.4 3.2-4.5 1.6-5.5 1.7-6.3.5-.6-1.1-1.1-1.1-2-.2-.9.9-.9 2.2-.3 4.5 1.1 3.8 3.9 4.9 4.7 1.8.7-2.8 3.6-2.5 4.7.6 1.3 3.4 1.4 3.1-2 3.9-3.6.8-4.4 1.9-3.6 5.1.7 2.8 3.6 3.3 3.6.6 0-2.5 10.8-6.1 12.1-4.1.6 1.1 1.1 1.1 2 .2.8-.8.8-2-.1-4.7-1.3-3.9-3.5-4.8-4.3-1.6-.8 3-3.4 2.4-4.5-.9-1-2.8-.9-3 1.9-3.6 3.5-.8 4.1-1.7 3.3-5-.5-2.1-3.1-3.6-3.5-2zM43.2 174.7c-1.2 3.7-1.8 7.1-1.4 7.5.4.4 2.2 1.1 4 1.4 2.5.5 3.2.3 3.2-.9 0-.9-.9-1.9-2.1-2.2-1.2-.4-1.7-1.1-1.2-1.6s3.1-.1 6.1.8c3.8 1.2 5.2 2.2 5.2 3.6 0 3.2 3.2 1.5 4.6-2.6 1.2-3.3 1.1-3.9-.2-4.4-.9-.3-1.9-.1-2.3.6-.6.9-2.3.6-6.4-1-5.7-2.2-6.5-3.3-2.5-3.4 3.2 0 3.4-2.3.3-3.5-4.4-1.7-5-1.2-7.3 5.7zM40.5 189.2c-2.8 1.6-3.5 2.8-3.5 6.4 0 4.5 3.8 7.6 9.9 8.2 4.3.4 5.3.1 7.5-2.1 3.4-3.4 3.8-10.7.6-10.7-1.6 0-2 .6-1.8 2.9.2 3.3-1.7 6.1-4.2 6.1-1.5 0-1.6-.5-.7-5.1.8-4.1.7-5.3-.4-6-1.9-1.2-5-1.1-7.4.3zM446.3 188.7c-2.3.9-1.4 3.3 1.2 3.3 4.4 0 2.7 1.6-3 2.9-4.5 1-5.9 1-7.1 0-2.4-2-3.5.1-2.3 4.4 1 3.6 3.9 5.3 3.9 2.3 0-1.2 7.3-3.6 11-3.6 1.9 0 1 1.8-1.1 2.3-2.1.6-2.2 3.3-.1 3.1.7-.1 2.4-.2 3.8-.3 2.5-.1 2.6-.3 2-3.9-1.4-8.4-2.6-11.2-4.9-11.1-1.2 0-2.8.3-3.4.6zM453 207.4c0 .9-.1 1.6-.2 1.7-.2 0-4.5.6-9.6 1.3-7.8 1-9.5 1-9.9-.1-.8-2-3.3-1.6-3.3.6 0 6.5 3 10.9 4.3 6.1.3-1.1 1.4-2 2.5-2 1.5 0 1.8.5 1.5 2.3-.3 1.3.4 3.3 1.5 4.7 1.7 2.1 2.7 2.4 7.6 2.3 7.4-.2 10.6-2.2 10.6-6.7 0-1.8-.3-3.6-.7-4-.4-.3-.7-2.1-.7-3.9-.1-2.2-.6-3.3-1.8-3.5-1.1-.2-1.8.3-1.8 1.2zM27.6 209.9c-1 1.1-1.9 4.4-2.3 8.5-.5 5.7-.4 6.6 1.1 6.6.9 0 1.6-.7 1.6-1.6 0-1 .6-1.4 1.8-1 .9.2 4.6.7 8.2 1.1 8.4.8 10 1.3 10 3.1 0 2.3 2.7 1.6 3.4-.9.3-1.2.6-4.7.6-7.8 0-4.2-.5-6-1.8-7.2-2.1-2-8.2-2.3-10-.5-.9.9-1.6.8-3-.5-2.5-2.3-7.5-2.2-9.6.2zM37.7 258.8c-2.5 2.8-2.2 8.7.5 10.6 3.4 2.4 7.3 2 9.7-1 2.6-3.4 2.6-5.4 0-8.8-2.5-3.2-7.7-3.6-10.2-.8zM444.5 259.5c-4.8 4.7-1.9 11.5 4.8 11.5 4.2 0 6.7-2.6 6.7-6.8 0-6.6-6.9-9.4-11.5-4.7zM259.1 304.7c-3.9 3.2-4.8 12.1-1.9 19.5 1.6 4.3 4.3 3.6 13.2-3.4 2.7-2.2 6.3-4.6 8-5.4 3.1-1.4 3.1-1.4.6.3-8.5 5.8-20.8 23-19.8 27.9.7 4.1 3.7 2.6 8.5-4.2 5.5-7.8 13.2-16.4 13.3-14.8 0 .6-2.7 5.3-6 10.4-4.3 6.6-6 10.3-6 12.7 0 1.8.4 3.3.9 3.3 2 0 11.3-11.4 14.6-18.1 2.3-4.6 5.8-9.4 9.1-12.6 3-2.9 5.4-5.7 5.4-6.2 0-2.1-3.2-3.3-7.3-2.8-3.7.5-4.4.3-5.2-1.6-2.4-5.5-22.4-9.1-27.4-5zM48.8 310.6c-3.9 6.8-4 7.7-.8 9.4 1.5.8 2.3.2 5-4.1 1.8-2.8 3.8-4.8 4.5-4.5.7.2 3.3.8 5.9 1.1 4.6.7 4.6.7 4.6-2.3 0-2.8-.3-3-6.5-4.6-3.5-.9-7-1.6-7.7-1.6-.7 0-3 3-5 6.6zM429 306.8c-4.8 1.5-5.5 2.1-5.8 4.6-.4 2.9-.3 2.9 4 2.3 2.4-.4 5.2-.9 6.3-1.2 1.5-.4 2.7.5 5 4 3.1 4.6 5 5.3 6.8 2.3.9-1.3.3-2.9-2.5-7.5-4.2-6.7-5.5-7.1-13.8-4.5z"/><path d="M53.6 320.7c-2.9 5-3.6 7.1-2.9 8.2 2 3.1 4.1 2.3 6.9-2.4 2.7-4.6 2.8-4.7 6.8-4 8 1.2 8.1 1.2 8.4-1.7.3-2.8.4-2.8-7.8-4.8-2.5-.6-5.2-1.3-6-1.6-1.1-.3-2.8 1.7-5.4 6.3zM425.8 317.2c-6.4 2-6.8 2.3-6.8 5.1 0 3.2-.1 3.2 9.5 1.2 2.7-.5 3.3-.2 6 3.9 1.7 2.5 3.5 4.6 4.1 4.6 1.3 0 3.4-2.1 3.4-3.5 0-1.6-7.8-13.5-8.7-13.4-.5.1-3.8 1-7.5 2.1zM82.6 324.3c-1 .7-1.6 2.1-1.4 3 .4 2.5-18.8 12.9-20.1 10.8-1-1.6-3.9-.8-4.7 1.3-.5 1.2 2.6 8.3 5.4 12.5 1.6 2.2 5.5-.5 4.8-3.3-.5-2 .5-2.9 9.1-7.5 5.2-2.8 9.7-5 9.8-4.9.1.2.7 1.3 1.4 2.5.9 1.9.8 2.4-.9 3.3-2.4 1.3-2.6 3.3-.5 5.4 1 1 1.2 1.7.5 2.1-.6.4-1 1.5-.8 2.5.4 2.7-8.4 9.2-11.5 8.5-1.5-.4-2.8-.1-3.6.9-1.1 1.3-.7 2.4 2.4 6.6 3.1 4.3 3.9 4.8 5.6 4 1-.6 1.9-1.9 1.9-2.9s.6-2.4 1.4-3c1-.9 1.7-.6 3 1.3 1.5 2.4 1.5 2.6-1.9 5.2-1.9 1.4-3.5 3.1-3.5 3.8 0 .6 1.3 2.6 2.8 4.5 2.6 3.1 3 3.2 5 2 1.4-.9 2-2 1.6-3.1-.6-2 9.7-10.3 10.7-8.6.9 1.5 4.9 0 4.9-1.9 0-1.5-5.9-10.3-6.9-10.3-1.7.1-4.1 2.9-3.6 4.2.9 2.4-2.1 2.9-4.1.7-1.7-1.9-1.7-2.1 2-5l3.7-3.1-2.8-3.7c-1.5-2-3.1-3.9-3.6-4.2-.4-.3.5-1.2 2.2-1.9 5.7-2.3 5.7-3.1.1-13.5-2.8-5.2-5.5-9.5-5.9-9.5-.4 0-1.5.6-2.5 1.3zM410.7 333.8c-1 1-2.4 4-3.3 6.6-1.4 4.1-1.4 5-.3 5.7 2.9 1.8 4.6.9 5.8-3.1.9-3 1.7-4 3.3-4 1.7 0 1.9.4 1.3 2.2-2 6.2-1.8 9.6.9 12.2 5.2 5.2 13.6 2 13.6-5.2 0-1.8.4-3.2 1-3.2 1 0 4-5.2 4-6.9 0-1.5-4.1-2.4-5.2-1.3-.8.8-2.9.2-6.9-1.9-6.7-3.3-11.8-3.7-14.2-1.1zM398 354c-1.1 1.1-2 2.6-2 3.3 0 .7-1.6 3-3.5 5.1-1.9 2.1-3.5 4.5-3.5 5.2 0 2 3.4 3.6 4.8 2.2.8-.8 3.2.5 8.7 4.8 4.2 3.2 8.3 6.4 9.2 7.1.8.7 1.3 1.9 1 2.7-.3.8.3 2.2 1.4 3.2 1.9 1.7 2 1.6 4.9-1.7 5-5.9 5.7-7.7 3.4-9.3-1.3-1-2.3-1.1-3.1-.4-.9.7-1.7.7-2.7-.1-1.2-1-1-1.6 1-3.6 3.1-3.1 3.2-8.6.3-12.6-4.8-6.8-15.7-10.1-19.9-5.9zM380.1 375.6c-6.5 4.7-6 13.8 1.1 19.8 3.5 3 4.9 3.6 8.9 3.6 4.2 0 5-.4 8.3-4 4.1-4.5 4.7-8.5 1.6-9.5-2.3-.7-4 .1-4 2s-4.8 5.5-6.6 4.8c-2.2-.8-1.7-2 2.6-6.7 2.2-2.4 4-4.8 4-5.4 0-1.8-5.9-5.4-9.8-5.9-2.5-.3-4.5.1-6.1 1.3zM102.4 376.9c-10.6 4.8-12.3 17.3-3.1 23 4.3 2.6 6.3 2.7 7.7.2 1.4-2.8 1.4-2.8-2.4-4.6-3.8-1.8-5-3.8-4.1-6.7.6-1.6 1.3-1.3 5.8 2.7 2.9 2.5 5.6 4.4 6.2 4.2 2.1-.7 5.5-7.1 5.5-10.4 0-4.5-1.4-6.9-5-8.8-3.7-1.9-5.6-1.9-10.6.4zM359.2 394.2c-3.9 2.9-7.1 5.8-7.2 6.4 0 1.7 2.8 3.7 4.4 3.1 2.1-.8 6.8 8.4 6.4 12.9-.2 2.6.2 3.9 1.5 4.8 1.5.9 2.2.7 3.9-1.4 2.8-3.4 2-9.5-2-15.7-2.8-4.3-3.2-6.3-1.4-6.3 1.6 0 8.2 10 7.6 11.5-.6 1.5 1.1 4.5 2.6 4.5.4 0 2.8-1.6 5.4-3.6 4-3.1 4.5-3.8 3.5-5.5-.7-1.3-1.7-1.9-2.9-1.6-1.3.3-3.2-1.4-7.1-6.9-3-4-5.9-7.4-6.5-7.4-.5 0-4.2 2.4-8.2 5.2zM123.6 392.5c-.9 1.3-1.6 2.9-1.6 3.4 0 1.3 3.3 2.3 5.2 1.6 2.1-.8 4.5 2.2 3 3.7-.9.9-1.8.8-3.8-.1-1.5-.6-2.7-1-2.8-.9-.1.2-.8 1.1-1.5 2.1-1.2 1.5-1.1 2 .4 3.7 1.7 1.9 1.5 5-.5 5-1.1 0-3.9-2.7-5.5-5.3-1.4-2.3-5.5-1.1-5.5 1.5 0 1.1 1.7 3.8 3.9 5.9 3.2 3.3 4.5 3.9 8 3.9 4.8 0 8.1-2.6 8.1-6.4 0-1.6.7-2.7 2-3.1 2.9-.9 5.3-5 4.6-7.9-.7-3-8-9.6-10.5-9.6-1 0-2.6 1.1-3.5 2.5zM142.6 404.6c-.3.8-.4 2.5-.1 3.7.8 2.9-5.7 10.7-8.8 10.7-1.6 0-3 1.4-4.9 4.9-1.6 2.7-2.8 5.2-2.8 5.5 0 .3 1.3 1.2 3 2.1 2.9 1.5 3 1.5 4.5-1.5.9-1.6 1.8-3 2.2-3 .3 0 2.6 1.1 5 2.5 4.3 2.6 4.3 2.6 2.8 5.5-2 3.8-2 3.7 1.4 5.5l2.9 1.5 3.2-5.7c2-3.6 2.8-5.9 2.1-6.1-1.8-.6-1.3-2.1 2.9-9.4 2.2-3.9 4-7.6 4-8.3 0-1.3-13.6-9.5-15.8-9.5-.5 0-1.3.7-1.6 1.6zM341.3 406.2c-2.1 1-2.3 1.9-2.3 8.2-.1 7.1-.1 7.1-1.6 4.1-.9-1.7-2.3-4-3-5.3l-1.5-2.2-4.2 2.1c-5.3 2.7-5.1 2.4-3.7 4.8.6 1.2 1.9 2.1 2.8 2.1 1.2 0 3.2 2.6 6.1 8 2.3 4.4 4.8 8 5.4 8 .7 0 2.3-.7 3.5-1.6 1.9-1.3 2.2-2.5 2.2-7.7l.1-6.2 2.4 4c1.4 2.2 2.6 4.4 2.8 5 .2.5 2.4-.3 5-1.8 4.1-2.4 4.6-3 3.7-4.7-.6-1.1-1.9-2-3-2-1.3 0-3.1-2.3-6.1-8-2.4-4.4-4.8-8-5.3-7.9-.6 0-2.1.5-3.3 1.1zM167 418.8c-4.7 2.3-7.4 7.3-7.5 13.9 0 4.4.4 5.7 2.6 7.9 3.8 3.7 10.4 4.4 14.2 1.4 8.2-6.5 8.4-20.1.3-23.5-4.5-1.9-5.4-1.9-9.6.3zM311 420.1c-4 1.6-6 4.9-6 10.2 0 12 7.7 18.4 17.3 14.3 1.8-.7 4.1-2.3 5.1-3.5 2-2.2 2-2.2-.2-4.3l-2.2-2.2-2.2 2.1c-3.2 2.9-5.3 3.4-7.5 1.8-2.3-1.7-1.3-2.7 5-5 5.7-2.2 6.4-3.3 4.3-7.3-3.2-6.1-8-8.3-13.6-6.1zM284 428.9c-6.9 1.6-7.5 1.9-7.8 4.4-.3 2.1.1 2.7 1.7 2.7 1.6 0 2.3 1.4 4.1 9.5 1.8 7.9 2.5 9.5 3.8 9.1 1-.3 3.1-.8 4.7-1.1 7.2-1.6 9.6-2.8 11-5.6 1.8-3.3 1.1-7.5-1.4-8.9-1.2-.6-1.6-1.8-1.3-4.2.7-6.7-3.5-8.4-14.8-5.9zM199 430c0 1.3.7 2.8 1.5 3.4 1.3 1 1.3 2.3-.2 12.3-1.4 9.6-1.9 11.3-3.5 11.3-1.3 0-1.8.8-1.8 2.9 0 2.7.2 2.9 6.1 3.5 4.7.6 6.4.4 7-.6 1.3-2 1-3.8-.6-3.8-.9 0-1.5-.9-1.5-2.4 0-2.2.2-2.3 4-1.3 3.5 1 4.3.8 6.7-.9 4-3 5.5-6.8 5.7-14.1.1-5.9-.1-6.7-2.7-8.9-2.1-1.8-4-2.4-7-2.4-2.3.1-6.3-.2-8.9-.6-4.5-.6-4.8-.5-4.8 1.6zM263 431.7c-9.3.5-10 .9-10 4.7 0 5 .9 6.6 3.6 6.6 1.9 0 2.4-.5 2.5-2.8l.1-2.7.8 2.5c.4 1.4.8 4.6.9 7.2.1 3.6-.3 4.8-1.4 4.8-.9 0-1.5.9-1.5 2.5 0 2.4.2 2.5 6.9 2.5 3.9 0 7.3-.5 7.6-1 1.1-1.7-.5-5-2.5-5-1.6 0-1.9-1-2.2-7-.2-3.9 0-7 .5-7 .4 0 .7 1.1.7 2.5 0 2 .5 2.5 2.4 2.5 3.3 0 3.7-.9 3-6.4-.6-4.2-.9-4.6-3.3-4.4-1.4.1-5.1.3-8.1.5zM230.9 434.8c-2.7 2.4-3.3 3.8-3.7 8.3-.6 7.6 1.6 12.5 6.5 14.5 8 3.4 15.3-2.2 15.3-11.8 0-9.1-3.6-13.8-10.7-13.8-3.3 0-5 .7-7.4 2.8z"/></svg>