<svg xmlns="http://www.w3.org/2000/svg" width="21" height="42"><path d="M0 16.21v22.225c0 1.66 1.32 2.937 3.038 3.065h14.924C19.68 41.5 21 40.223 21 38.562V16.21a6.935 6.935 0 00-2.113-4.981c-.793-.766-1.321-1.916-1.321-3.065h2.245V.5H1.19v7.664h2.377c0 1.15-.528 2.299-1.32 3.065A6.568 6.568 0 000 16.21zM18.49 28.6H7.926v-7.664H18.49V28.6zM3.83 3.055h13.34v2.554H3.83V3.055zM2.642 16.21c0-1.15.528-2.299 1.32-3.193 1.321-1.277 2.113-3.065 2.113-4.853h8.717c0 1.788.793 3.576 2.114 4.853.924.766 1.32 1.916 1.32 3.193v2.172H5.283v12.772h13.208v7.28c0 .256-.133.384-.397.384H3.038c-.264 0-.396-.128-.396-.383V16.21z" fill="#8450F7" fill-rule="nonzero"/></svg>