<svg xmlns="http://www.w3.org/2000/svg" width="40" height="36"><path d="M6.658.566S11.25 0 20 0s13.351.566 13.351.566c2.752.24 5.399 3.067 5.843 6.336 0 0 .806 3.598.806 11.098 0 7.5-.809 11.117-.809 11.117-.474 3.25-3.083 6.085-5.844 6.306 0 0-5.014.577-13.347.577-8.333 0-13.356-.577-13.356-.577-2.75-.234-5.394-3.056-5.838-6.325C.806 29.098 0 25.5 0 18 0 10.5.809 6.883.809 6.883 1.283 3.633 3.9.79 6.659.566zM4.361 10.15C4.136 12.28 4 14.893 4 18s.136 5.717.36 7.839a46.34 46.34 0 00.373 2.615c.183 1.409 1.487 2.874 2.75 2.987.129.015 2.333.214 3.273.276C13.46 31.894 16.557 32 20 32c3.443 0 6.54-.106 9.24-.283.939-.061 3.139-.26 3.268-.275 1.263-.107 2.561-1.57 2.763-3.014 0 0 .24-1.372.368-2.58C35.864 23.72 36 21.108 36 18s-.136-5.717-.36-7.839c-.126-1.203-.373-2.615-.373-2.615-.183-1.41-1.492-2.882-2.681-2.99-.207-.025-2.28-.218-3.195-.278C26.753 4.104 23.619 4 20 4c-3.619 0-6.752.104-9.386.277-.915.06-3.205.28-3.205.28-1.172.099-2.478 1.572-2.68 3.015 0 0-.24 1.372-.368 2.58zm12.65 3.093c.001-1.117.647-1.581 1.43-1.045l6.962 4.77c.789.54.782 1.424-.004 1.965l-6.98 4.814c-.79.545-1.43.08-1.427-1.036l.018-9.468z" fill="#8450F7" fill-rule="nonzero"/></svg>