<svg xmlns="http://www.w3.org/2000/svg" width="505" height="273"><defs><linearGradient x1="50%" y1="0%" x2="50%" y2="90.535%" id="a"><stop stop-color="#323865" offset="0%"/><stop stop-color="#242950" offset="100%"/></linearGradient></defs><path d="M926.324 150.142c-.166.62 3.176 2.988 3.889 3.188.429.126.596.347 1.06.532.541.148 1.071.326 1.591.532.326.03-.142.472 0 .709.212.134 2.293-.264 2.658-.307 1.58-.189 3.08.146 4.59-.225 1.218-.308 3.794-.37 4.616-1.429.625-.805 2.722-1.033 3.693-1.76.915-.692 2.848-1.43 3.553-2.314.59-.738 2.613-1.26 3.164-1.938.768-.94 3.202-2.376 4.241-2.833 3.107-1.406 6.552-3.468 9.37-5.493 2.934-2.114 6.095-3.718 9.368-5.846a59.4 59.4 0 014.349-2.581c.86-.458 1.71-.8 2.544-1.316.15-.091 1.552-.703 1.416-.532.794-1 4.289-2.5 5.62-3.09 2.701-1.196 5.714-1.84 8.345-3.11 2.173-1.046 5.199-1.706 7.601-2.126 2.297-.403 4.513-1.265 6.758-1.531.685-.082 6.578-1.553 6.638-1.23-.053-.285 8.052-.67 8.59-.85.778-.258 2.252-.458 2.939-.286.598.136 2.25.34 2.693.068.304-.187 2.614.537 2.964.109.462-.569 3.286.665 3.534.355.763-.956 4.514 1.076 4.95.531.33-.412 4.018.78 4.627.922.3.07 5.483 1.42 3.991 2.224-.283.151.272 7.202.177 8.25-.063.706.033 4-.39 4.417-.9.882-.543 4.784-.745 6.092-.62 3.997-1.311 8.082-1.566 12.09-.067 1.037-1.684 8.748-1.236 9.092 1.22.932-2.08 7.621-.87 8.494.165.119.079 4.29.045 4.808-.23 3.655.198 6.471.913 9.77 1.044 4.805 2.428 9.7 3.892 14.622 1.076 3.62 2.375 7.58 4.597 10.452 1.005 1.304 2.167 3.317 3.298 4.093 1.613 1.107 1.645 2.476 1.405 4.167-.03.21.098 1.14.138 1.317.164.714-.213 1.177-.069 1.76.682-.204 2.265 10.687 2.652 12.402.353 1.62.86 3.724 1.558 5.323.248.572 2.363 4.94 2.044 5.295-.154.172 1.896 4.014 2.256 4.582.346.544.936 1.07 1.175 1.606.414.92 1.696 2.181 1.853 2.976.164.827 2.225 2.365 2.77 2.735 1.138.777 2.424 1.25 3.546 2.107 2.463 1.881 6.326 2.847 9.192 3.72.754.227 3.078.618 3.41.965.246.256 2.477.818 2.608.8 1.174-.16 3.219 1.565 4.453 1.935 1.314.392 2.775.69 4.201 1.261 2.162.865 4.138.85 6.39 1.692 1.268.474 2.343 1.835 3.526 2.161 1.023.283 2.004-1.104 2.281-1.019.258-.532-.734-2.592-1.06-3.188 3.573 1.427 7.232 1.752 10.783 2.48.824.169 1.968.907 2.299-.354 1.65-.011 1.313-1.732.386-2.258-1.099-.625-1.48-.754-1.802-1.995 1.638-.138 3.155.483 4.773.532 1.334.233 1.869.336 3.359 0a.908.908 0 01.353-.532c.218-.944-.297-.961-.704-1.332-.505-.458-.506-.939-.886-1.502-.37-.034-1.525-.726-1.768-.885-.814-.532-1.52-1.087-1.946-1.905-.795-1.529-1.64-2.327-2.65-3.588-.584-.73-1.518-1.142-2.475-1.594-2.145-1.021-3.176-3.844-5.123-5.47-2.513-2.098-4.774-1.473-7.25-1.615-.781-.048-1.704.065-2.486-.175-.078-.024-2.354-1.038-2.333-.98-.387-1.08-5.61-.917-6.6-1.066-2.573-.389-5.871-.355-8.027-2.032.475.17-.62-3.226-.63-3.318-.541-5.566-1.167-12.05 2.398-16.699 1.703-2.232 3.404-4.375 5.656-6.2.675-.547 2.569-2.481 3.36-2.481-.07-.024-4.161 4.086-4.597 4.783-.505.798-.532 1.367-1.415 2.145-.794.699-2.55 2.172-1.944 3.347 1.723-.46 3.112-2.424 4.424-3.54 1.689-1.434 3.242-3.017 4.945-4.432a64.628 64.628 0 011.56-1.239c.671-.52 2.38.23 1.704.877-.696.665-2.761 2.066-2.557 3.196.435-.179 4.032-2.519 4.199-2.082.36.943-.077 1.145 1.105 1.197 1.136 1.23 2.38 2.68 3.197 4.155.57 1.027 2.298 3.262 2.102 4.438-.134.803 1.675 2.328 2.125 3.099 2.97 5.006 11.044 6.161 16.76 8.07 4.156 1.389 8.437 1.586 12.408 2.559.613.158 2.412.414 2.828.355 1.717-.236 1.92-1.212 3.768-.575 1.683.58 2.336-.658 3.692-.591 3.2.157 5.86.34 9.155.102 3.037-.215-1.92-3.069 1.37-3.467 1.515-.182 2.53-.345 3.933.101 1.714.54 3.528.901 3.713-1.24.01-.308-1.908-1.27-2.298-1.593-.128-.107-.893-.752-.971-.979-.588-1.698-1.417-2.446-2.998-3.37-.515-.301-1.03-.738-1.717-.977-.942-.332-1.69-.267-2.622-.52-1.536-.419-2.753-3.095-4.532-3.52-1.914-.454-3.085-.72-4.69-.7-1.627.02-3.74-.517-5.273-.21-1.378.347-3.727-.18-5.127-.532-.986-.246-2.29-.242-3.396-.752-2.233-1.027-3.893-2.379-5.276-4.32-.465-.65-1.47-5.713-1.757-5.733-.002.005.802-.174.882-.178-.294-.842-.061-1.506.18-2.304.27-.9.643-5.725 1.324-6.065.516-.26 1.027-3.74 1.326-4.386.225-.49.673-.978.776-1.575.08-.427.285-.793.617-1.099 1.113-1.223.347-.192.55-1.401.744-.114 1.388.24 2.123.178.08.572-2.248 2.154-2.651 2.656-.586.728-1.555 1.464-1.415 2.481 1.365.185 2.135-2.071 3.182-2.125.401-.022 1.283-1.039 1.553-1.246 1.396-1.08 1.354-1.235 3.043-.703-.533 2.033-3.889 2.33-3.889 4.427 1.36.167 2.026-1.542 3.005-1.593.614-.036 1.455-1.116 1.946-1.417 1.245-.772 1.568-.414 3.004.176-.356 1.749-3.367 1.796-3.182 3.898.619-.42 1.588-.41 2.297-.885.834-.56 1.647-1.195 2.475-1.772.755-.525.89-.027 1.768 0-.055 1.137-1.94 1.335-2.298 1.772-.496.605-2.172 1.345-1.945 2.48 1.014.32 1.869-.363 2.653-.886 1.265-.845 3.181-2.588 4.706-2.238 2.464.565-2.071 2.178-2.232 3.654 1.465.508 3.494-1.318 4.598-2.125 1.522-1.123 4.795-1.436 3.003 1.418-1.062.697-1.852 1.635-2.828 2.48.083 1.369.644.802 1.767.177 1.27-.706 2.349-1.8 3.851-1.547 1.174.2 7.46-.658 6.938 1.208-.417 1.491 2.78 2.025 3.707 2.11.986.071 2.436-.037 3.536-.354.467-.145 1.17 1.16 1.414 1.417.569.602.981 1.11 1.813 1.205.386.044 2.33-.07 2.43.39.568-.217.567-.98 1.236-1.063.76.304-.575 3.512 2.123 2.302.156.304-.44.759 0 .887.413-.031 1.327-1.533 1.766-1.95.333 1.255-1.504 3.038.53 3.544 1.595.402 1.968-2.174 3.006-2.835 1.39.87 2.402 3.95 3.182 5.315.786 1.373 1.41 2.59 2.474 3.897.67.82 1.058 1.795 1.592 2.658.33.53 1.094 1.373 1.237 1.947.285 1.143 2.333 3.451 3.181 4.606.431.59.73 1.946 1.506 2.215.42.145 1.062.268 1.676-.264.704.684 1.007 1.616 1.414 2.479.141.297.72 1.006.709 1.061-.134.668 2.067 2.738 2.474 3.367.74 1.148 2.06 3.057 3.534 3.367.104-.222-.51-3.223.91-1.911 1.062.98 2.491 2.204 3.142 3.342.638 1.11 2.775 5.239 4.434 4.947.004-.152-.556-2.05-.334-1.881.895.689 1.793 1.473 2.985 1.527.727.573 2.274 4.18 3.536 3.542-.311-1.282-1.071-2.349-1.59-3.542 1.32-1.134 5.36 4.402 6.009 5.314 1.087 1.523 1.694 2.59 3.535 3.01.145-2.635-2.688-4.012-3.359-6.375.959-.297 4.006 3.114 4.067 4.25.03.59 2 2.767 2.298 3.012.644.53 1.095 1.145 1.656 1.717 1.456 1.485 1.491-.92.819-1.894-.436-.63-1.717-1.89-1.768-2.835.983-.35 3.592 3.873 4.242 4.783 1.231 1.727 2.518 3.013 4.124 4.405.758.657 2.93 2.036 3.124 3.035 1.998.139 4.328 2.067 6.364 2.836 1.675.632 3.412 1.08 5.126 1.417 3.813.744 7.562 2.542 11.585 2.737 2.303.11 4.383.399 6.445.983 1.803.5 6.255 1.266 5.48-2.126.424-.073 3.02-.115 3.222.267.176.334 3.71.096 4.379.24.61.132 3.388 1.198 3.505-.066.058-.631.602-.824.56-1.504-.208-.103-2-1.588-2.12-1.948 1.029-1.02 6.547-1.06 7.742-.333 1.327.808 2.169-.452 3.042-1.262-.53-.427-.39-1.325-1.003-1.827-.72-.591-1.102-1.152-1.842-1.7-.649-.48-3.878-2.916-3.953-3.75-.022-.274-.64-1.623-.803-1.758-1.37-1.106-2.407-2.148-4.34-2.389-1.164-.145-2.275-.422-3.531-.508-.867-.06-3.49.212-4.086-.2-.136-.096-1.69-.008-1.693-.005-.49.578-2.1-.875-2.084-1.327-.322.162-1.911-.609-2.145-.887-.58-.685-2.803-.54-3.494-.457-1.273.156-2.891.534-4.084.459-.306-.019-1.209.218-1.413.177-.774-.151-1.09.076-2.221.151-1.621.108-2.324-1.788-3.083-2.808-2.244-3.036-4.407-5.683-5.447-9.612-.662-2.5 1.204-2.963 1.89-5.186.188-.608 1.41-2.692 1.796-2.832.496-.18 1.66-2.603 2.115-3.276.773-1.141 1.466-3.426 2.475-4.25.968-.795 2.288-3.157 2.475-4.429.708.647-.34 2.14.884 1.063-.155-.907.403-.75.964-.982 1.318-.546-.05.075.98-.081.97.836.788-1.125.883-1.417.035-1.406 1.575-.937 2.299-.709.133.61-.63 2.204-.353 2.48-.516.226.732.58.884.53.694.022.257-.91.353-1.238.428-1.468 1.504-1.096 1.767.177.117.564-.534 1.473 0 1.948.946.483 1.06-.858.885-1.417.287-.149.817.3 1.06.177 2.413-1.202.891 2.874 1.766 3.898 1.038-.148.753-1.779.886-2.48 1.013.43.953.784 1.073 1.758.172 1.402 1 .453.872-.341 2.266 1.351.546 2.076 1.59 3.898 1.147-.193-.048-1.862.884-1.95.359.298 2.347 2.195 2.39 2.56.064.528 2.116 2.582 2.559 2.932.562.445 1.168 1.415 1.856 1.93 2.009 1.505 3.42 5.466 4.282 7.603.92 2.281 2.156 4.017 3.022 6.546 2.072 6.052 11.096 7.526 16.65 8.9 1.818.46 4.171 1.55 6.095 1.425 1.256-.081 3-.33 4.214-.137.018.003 2.212.299 2.064.483.18-.223 5.764.985 3.182-1.417-.822-.764-2.75-1.088-3.284-2.17-.944-1.914 3.31-.456 3.823-.497 1.467-.123 3.52.888 5.075 1.042 1.548.153 2.795-.168 4.285-.5 1.577-.355 2.81.23 4.165.16.526-.026 5.856 2.114 3.573-1.363-1.094-1.666-3.206-2.145-4.026-3.936-.698-1.5-1.529-1.678-2.804-2.59-.782-.561-1.542-.905-1.439-2.193-.213-.056-2.72-1.63-2.835-1.772-.852-1.044-2.918-.768-3.707-1.416-1.75-1.446-3.415-1.84-5.675-1.89-2.705-.061-5.062-.799-7.581-1.299-2.06-.406-3.295-2.384-4.963-3.898-.931-.845-1.955-3.074-2.461-4.25-1.03-2.406-1.449-5.253-1.986-7.818-.423-2.016-1.008-5.587-.378-7.409.364-1.052-.197-2.842.048-4.08.21-1.062 1.727-8.594.948-9.078-.077-.048.693-4.157.65-4.753-.108-1.498.741-3.752.973-5.486.055-.405.402-1.038.452-1.236.043-.169.176-2.512.353-2.658 1.181-.969 1.528-5.011 1.662-6.588.267-3.122 2.212-6.168 2.757-9.177.88.841-1.456 7.618.707 7.439.688-3.578 1.034-7.278 1.944-10.806.358-1.342 1.084-2.951 1.239-4.429.038.01-.75 8.98-.354 10.097 1.631-.162 2.396-10.136 2.653-11.692.906.705-.95 4.391.882 4.43.706-2.688 1.096-5.605 2.038-8.1.813-2.147 1.71-4.379 2.205-6.604.852.357-2.27 7.373-.53 8.68.71-.736 2.042-5.514 1.936-6.385-.198-1.616 1.685-3.772 1.776-5.484.089-1.683 1.61-4.272 2.458-5.755.387-.672.698-1.272 1.077-1.863.338-.526 2.084-2.508 2.09-2.547-.127.918-1.409 2.533-1.895 3.33-.973 1.595-1.412 3.395-1.255 5.24 1.131.121 2.674-4.34 3.181-5.137 1.539-2.425 3.21-4.66 4.766-6.829.523-.732 3.547-3.349 4.426-3.268 2.143-.038 4.09 1.81 6.01 2.302-.291 1.075-2.184 2.31-3.004 3.012-1.201 1.03-1.888 1.686-3.006 2.658-1.415 1.204-2.934 2.993-4.418 4.429-1.684 1.625-3.646 3.573-4.948 5.65-.728 1.162-2.454 2.412-2.3 3.739.43.147 3.333-3.814 3.723-4.405.856-1.295 2.566-3.88 3.958-4.531.256-.12 1.345-1.268 1.333-1.342-.1-.533 4.943-4.823 5.743-5.406.49-.356 1.47-1.558 1.755-1.596 1.144-.152 1.524-2.199 2.756-1.321.903.643 2.578 1.39 3.712 1.416.14.594-3.269 3.276-3.712 3.72-.757.763-1.844 1.046-2.407 1.82-.51.7-2.9 3.112-3.689 3.228-.62.092-1.196 1.435-1.86 1.861.459.53 6.738-5.519 7.603-6.2.696-.546 2.532-2.61 3.534-2.657.361-2.614 4.752.179 6.2.356 1.08.132 1.969 1.008 2.992 1.06 1.546.083 3.073.456 4.596.71 1.408.235 2.223-.32 3.536-.531.47-.076 3.026.2 3.227-.268.03-.07 1.1-.614 1.192-.618.48-.223.95-.459 1.414-.709.693-.16 1.423.019 2.121 0 .148-.002.73-.23 1.06-.177 4.95.85 9.91-.973 13.402-4.02 1.375-1.2 1.004-3.861 2.155-5.016.653-.653 1.347-2.43 1.643-3.655.148-.606-.58-1.6-.88-2.411-.426-1.163-1.467-1.26-2.413-1.758-1.335-.706-1.338-1.267-2.239-2.45 1.186.208 4.372-.748 5.48-1.417-.403-.854-9.757.578-5.126-1.24 1.264-.5 2.72-1.253 3.712-1.771.763-.4 3.409-1.818 4.418-1.772-1.006-1.664-5.867 1.02-7.234 1.51-.881.315-1.94.535-2.727 1.056-.922.611-2.013-.837-1.213-1.806.903-1.093 2.613-2.391 3.397-3.064 2.362-2.03 4.785-4.03 7.071-5.845.792-.631 8.778-4.683 8.484-5.315-2.142.075-3.947 1.167-5.71 1.895-.886.366-2.332 1.784-3.128 1.826-1.435.086-4.38 3.168-5.48 4.074-2.073 1.703-4.293 3.177-6.186 5.137-1.2-1.378-.935-5.777-.918-7.505.002-.358-.101-3.931.21-4.187.459-.375.284-3.276.884-3.462-.077.025.924-4.868.978-4.803-.307-.359.773-4.522 1.143-5.199.58-1.054 1.923-3.38 2.028-4.456.103-1.04 1.489-2.858 1.155-3.869-1.137-.118-3.553 6.054-4.066 7.085-.488-.417-.328-2.868-.354-3.366-.132-2.502-1.105-4.529-2.122-6.732-.658-1.436-1.033-4.614-2.302-5.674-.606-.506-1.76-3.135-1.948-3.969-.644-2.845-5.235-8.272-3.528-10.552 1.94-2.597 3.146-5.574 4.188-8.718 1.467-4.426 1.53-9.376 1.645-13.603.055-1.985.836-6.548-.084-7.886-.505-.733-1.26-.992-1.642-1.542-.38-.548-3.133.067-3.399.393-.74.906-2.324.205-3.191 1.244-.163.194-.902.262-1.335.548-1.192.78-2.446 1.39-3.605 2.282-2.597 2.01-4.939 3.69-6.895 5.847-.427.473-2.307 2.615-2.297 3.365-.676-.805-1.188-1.74-1.945-2.48-.583-.167-.531.437-1.06.354.267.744.286.984.706 1.772.153.287.536 1.278.708 1.417-.05-.04.96 2.424 1.194 2.645-.665-.12-3.78-3.817-4.2-4.416-1.81-2.599-1.518.256-.882 1.463-1.756-1.725-7.064-7.115-2.83-.4-1.389.12-3.005-2.566-4.243-3.012-.248.57-.19 1.101.178 1.595-3.978-.62-7.502-1.686-11.667-2.126-4.766-.494-10.092.503-15.078.788-.452.026-4.643.955-4.77.348-.127-.624-4.037-2.651-4.724-3.084-2.565-1.626-6.957-2.692-9.926-1.028-1.07.601-1.688 1.963-2.27 2.444-.445.365-.748 2.17-.885 2.658-.535 1.908-3.998 1.432-5.783 1.448-5.841.051-11.4.466-17.023.8-3.86.229-8.915 1.435-12.371.055-2.036-.814-4.698-2.498-6.611-4.107-.707-.593-2.376-1.023-2.759-1.83-.222-.468-2.296-1.723-2.823-1.772-.84-.078-1.45-1.196-2.125-1.504-.611-.275-3.087-1.424-3.274-1.954-.284-.807-2.556-1.27-3.443-1.765-1.575-.887-4.234-3.27-6.01-3.366-1.274-.067-2.516-1.627-3.633-1.97-1.563-.482-3.517-1.609-4.852-2.46-3.863-2.474-8.767-3.478-12.904-5.49-2.877-1.416-6.165-2.242-9.1-3.629-4.995-2.359-11.171-3.67-16.662-4.63-5.788-1.014-11.477-2.268-17.37-2.548-7.42-.34-13.12-.98-20.628-.376-4.86.391-9.243.841-13.843 1.084-3.713.195-7.636.696-11.312 1.24-.987.146-7.134 1.097-7.471 2.042-.255.71-2.898.578-3.49 1.147-.653.63-1.75 1.007-2.573 1.338-1.69.676-4.805 2.98-6.619 2.56-.191.767-3.683 2.111-4.38 2.454-.997.492-2.016.938-3.044 1.443-.298.146-1.094.361-1.274.683-.391.7-2.724 1.066-2.84 1.543-.125.516-2.158 1.638-2.78 2.026-1.359.844-2.691 2.209-4.065 2.834-.62.28-5.612 3.048-5.482 3.718.008.04-3.327 2.603-3.776 2.992-.853.734-1.646 1.58-2.362 2.167-.98.805-3.48 3.953-4.383 4.139-.893.183-2.815 3.174-3.527 3.927-1.027 1.089-2.14 2.26-3.098 3.43-1.744 2.126-3.4 4.288-4.95 6.554-3.25 4.831-6.717 9.303-9.898 13.995-.639.951-3.558 3.96-3.352 5.323.194 1.29-2.146 2.816-1.776 4.067-.287.11-1.217-.502-1.767-.354-1.164.298-2.66.146-3.957.156-.76.004-8.828.647-8.908.296-.066-.298-6.427.179-7.11.256-2.157.214-5.079.886-7.247.886-3.516.562-7.143.737-10.413 1.162-5.068.66-10.205 2.551-15.218 2.912-4.104.295-7.597 2.154-11.422 2.878-2.162.409-4.481 1.074-6.726 1.652-2.417.623-5.187 1.026-7.308 2.379-2.61 1.67-6.453 2.203-9.369 3.35-1.875.739-3.8 1.373-5.667 2.108-.66.26-4.174 1.515-4.325 1.985-.166.511-2.189 1.146-2.626.952-1.61-.72-2.599 1.914-3.73 1.708-.673-.122-3.855 1.8-4.124 2.15-.815 1.062-3.822 2.053-4.983 2.805-.684.443-2.057 1.847-2.66 1.764-.232-.032-3.043 1.62-3.173 1.78-1.224 1.501-3.787 2.12-4.95 3.541-.93 1.154-2.862 2-4.09 3.207-1.918 1.882-3.906 3.372-5.758 5.155-1.509 1.452-3.408 3.972-4.208 6.04-.382.988-1.09 3.208-1.86 3.854-.765.645-1.169 4.293-1.407 5.307-.602 2.556-.292 5.31-.623 7.708-.39 2.83 1.923 6.974 2.92 9.475.28.7 2.425 4.506 3.36 4.075" transform="matrix(-1 0 0 1 1425 0)" fill="url(#a)" fill-rule="nonzero"/></svg>