<svg xmlns="http://www.w3.org/2000/svg" width="36" height="33"><path d="M34.075 18.71v-3.739c0-2.77-2.299-5.016-5.134-5.016-2.835 0-5.134 2.246-5.134 5.016v9.424c0 3.143-2.6 5.684-5.818 5.684-3.217 0-5.818-2.54-5.818-5.684v-3.316c5.113-.668 9.13-4.63 9.263-9.402V2.849c0-.825-.69-1.5-1.535-1.5h-3.533A1.529 1.529 0 0014.846 0C14 0 13.31.675 13.31 1.5v2.691c0 .826.69 1.5 1.535 1.5.793 0 1.381-.595 1.513-1.349h2.013v7.335c0 3.589-3.445 6.51-7.661 6.51-4.21 0-7.662-2.921-7.662-6.51V4.342h1.925c.08.754.734 1.35 1.52 1.35.845 0 1.455-.675 1.536-1.5V1.5c0-.825-.69-1.5-1.536-1.5-.793 0-1.447.596-1.52 1.35H1.52C.69 1.35 0 2.023 0 2.841v8.828c0 4.773 3.945 8.741 9.116 9.402v3.323c0 4.715 3.98 8.605 8.807 8.605 4.9 0 8.807-3.818 8.961-8.605v-9.43c0-1.12.918-2.018 2.064-2.018s2.064.897 2.064 2.017v3.69c-1.212.552-2.064 1.757-2.064 3.121 0 1.873 1.536 3.445 3.526 3.445 1.917 0 3.526-1.5 3.526-3.445a3.449 3.449 0 00-1.925-3.064zM32.5 22a.486.486 0 01-.5-.5c0-.288.212-.5.5-.5.288 0 .5.288.5.5 0 .288-.212.5-.5.5z" fill="#8450F7" fill-rule="nonzero"/></svg>