<svg xmlns="http://www.w3.org/2000/svg" width="34" height="44"><path d="M28.253 17.546v-6.394h-1.715C26.18 9.554 25.16 8.1 23.574 6.968a10.717 10.717 0 00-2.938-1.454c.134-.41.208-.848.208-1.303A4.216 4.216 0 0016.633 0a4.216 4.216 0 00-4.003 5.515 10.705 10.705 0 00-2.938 1.453C8.105 8.1 7.084 9.554 6.728 11.152H5.013v6.394C1.686 21.572 0 25.585 0 29.48c0 4.624 2.353 9.378 6.992 14.131l.38.389h18.522l.38-.389c4.64-4.753 6.992-9.507 6.992-14.131 0-3.895-1.687-7.908-5.013-11.934zm-2.578-3.816v3.007H7.59V13.73h18.084zM16.633 2.578c.9 0 1.633.733 1.633 1.633s-.733 1.633-1.633 1.633S15 5.11 15 4.21s.732-1.633 1.633-1.633zm-5.444 6.49c.882-.63 1.952-1.086 3.126-1.344.665.44 1.462.698 2.318.698.856 0 1.652-.257 2.318-.698 1.173.258 2.243.713 3.126 1.343.845.603 1.443 1.319 1.76 2.085H9.428c.318-.766.916-1.481 1.762-2.085zM6.896 19.314H26.37c2.866 3.507 4.317 6.924 4.317 10.165 0 2.084-.594 4.23-1.77 6.42H4.349c-1.177-2.19-1.77-4.336-1.77-6.42 0-3.241 1.451-6.658 4.317-10.165zm17.906 22.107H8.463a30.536 30.536 0 01-2.475-2.943h21.29a30.538 30.538 0 01-2.476 2.943z" fill="#8450F7" fill-rule="nonzero"/></svg>