<svg xmlns="http://www.w3.org/2000/svg" width="44" height="42"><g fill="#8450F7" fill-rule="evenodd"><path d="M32 12a2 2 0 004 0V4.263a4 4 0 00-4.492-3.97L5.207 3.556A6 6 0 000 9.502V20a2 2 0 104 0V9.502c0-1.002.742-1.85 1.717-1.98L32 4.263V12z"/><path d="M4 28a2 2 0 01-4 0V16a6 6 0 016-6h32a6 6 0 016 6v20a6 6 0 01-6 6H6a6 6 0 01-6-6 2 2 0 014 0 2 2 0 002 2h32a2 2 0 002-2V16a2 2 0 00-2-2H6a2 2 0 00-2 2v12z"/><path d="M40 22h-8a4 4 0 100 8h8v-8zm-8-4h10a2 2 0 012 2v12a2 2 0 01-2 2H32a8 8 0 110-16z" fill-rule="nonzero"/><circle cx="34" cy="26" r="2"/></g></svg>